<svg xmlns="http://www.w3.org/2000/svg" xmlns:xlink="http://www.w3.org/1999/xlink" width="203" height="34" viewBox="0 0 203 34">
  <defs>
    <polygon id="liggande-a" points="0 .43 33.382 .43 33.382 33.871 0 33.871"/>
    <polygon id="liggande-c" points="0 34.57 202.965 34.57 202.965 1.129 0 1.129"/>
  </defs>
  <g fill="none" fill-rule="evenodd" transform="translate(0 -1)">
    <path fill="#E00055" d="M16.6911448,26.2555323 C21.3279182,26.2555323 25.0867028,22.4902097 25.0867028,17.8465 L8.29558674,17.8465 C8.29558674,22.4902097 12.0543713,26.2555323 16.6911448,26.2555323"/>
    <g transform="translate(0 .699)">
      <mask id="liggande-b" fill="#fff">
        <use xlink:href="#liggande-a"/>
      </mask>
      <path fill="#E00055" d="M29.5142917,17.1495484 C29.5142917,24.2319677 23.7617171,29.9968065 16.6915956,29.9968065 C9.62034696,29.9968065 3.86777238,24.2319677 3.86777238,17.1495484 C3.86777238,10.0682581 9.62034696,4.30454839 16.6915956,4.30454839 C23.7617171,4.30454839 29.5142917,10.0682581 29.5142917,17.1495484 M16.6915956,0.429709677 C7.48792707,0.429709677 -0.000338121547,7.92987097 -0.000338121547,17.1495484 C-0.000338121547,26.3692258 7.48792707,33.8716452 16.6915956,33.8716452 C25.894137,33.8716452 33.3824022,26.3692258 33.3824022,17.1495484 C33.3824022,7.92987097 25.894137,0.429709677 16.6915956,0.429709677" mask="url(#liggande-b)"/>
    </g>
    <path fill="#E00055" d="M55.8254453 14.6454677C55.8254453 16.3265968 54.6690696 17.455629 52.8477215 17.455629L49.088937 17.455629 49.088937 11.8070806 52.8477215 11.8070806C54.6690696 11.8070806 55.8254453 12.9677258 55.8254453 14.6454677M59.8434564 14.6454677C59.8434564 11.1432097 57.2985282 8.21562903 53.0494674 8.21562903L45.070926 8.21562903 45.070926 28.8362742 49.088937 28.8362742 49.088937 21.0753065 53.0494674 21.0753065C57.2985282 21.0753065 59.8434564 18.1499839 59.8434564 14.6454677M71.6996884 21.8011613L66.5816552 21.8011613 69.1840641 14.2976129 71.6996884 21.8011613zM78.1724619 28.8361613L70.657147 8.21551613 67.5069812 8.21551613 60.0198431 28.8361613 64.2102961 28.8361613 65.4545834 25.186 72.7670254 25.186 73.9820088 28.8361613 78.1724619 28.8361613z"/>
    <polygon fill="#E00055" points="94.334 28.837 86.181 16.18 86.181 28.837 82.161 28.837 82.161 8.215 85.746 8.215 93.898 20.844 93.898 8.215 97.918 8.215 97.918 28.837"/>
    <polygon fill="#E00055" points="117.974 28.837 114.967 28.837 108.174 8.215 112.334 8.215 116.467 21.654 120.605 8.215 124.794 8.215"/>
    <mask id="liggande-d" fill="#fff">
      <use xlink:href="#liggande-c"/>
    </mask>
    <polygon fill="#E00055" points="128.729 28.837 132.745 28.837 132.745 8.215 128.729 8.215" mask="url(#liggande-d)"/>
    <path fill="#E00055" d="M144.495454,29.0096935 C141.376846,29.0096935 139.002106,28.3435645 136.981266,26.2853387 L139.581421,23.6829194 C140.882062,24.9858226 142.647056,25.4182419 144.555189,25.4182419 C146.924294,25.4182419 148.196758,24.5206613 148.196758,22.8711452 C148.196758,22.1463065 147.993885,21.536629 147.556581,21.1313065 C147.15309,20.7587258 146.69099,20.5532419 145.739741,20.4064677 L143.252294,20.0621129 C141.489554,19.7979194 140.191167,19.2492097 139.261333,18.3538871 C138.277399,17.3682419 137.789377,16.0382419 137.789377,14.2984032 C137.789377,10.6200161 140.506747,8.04469355 144.957554,8.04469355 C147.789885,8.04469355 149.84341,8.73791935 151.608404,10.4450161 L149.064603,12.9684032 C147.762835,11.7208226 146.202968,11.5469516 144.844846,11.5469516 C142.704537,11.5469516 141.660869,12.7358226 141.660869,14.1538871 C141.660869,14.6755 141.837819,15.2264677 142.272869,15.6295323 C142.672979,16.0077581 143.340206,16.3261452 144.179874,16.4413065 L146.605333,16.7913065 C148.487543,17.0498548 149.673222,17.5703387 150.535432,18.3821129 C151.635454,19.4253387 152.129112,20.9303387 152.129112,22.7559839 C152.129112,26.751629 148.801996,29.0096935 144.495454,29.0096935" mask="url(#liggande-d)"/>
    <polygon fill="#E00055" points="157.202 28.837 161.221 28.837 161.221 8.215 157.202 8.215" mask="url(#liggande-d)"/>
    <path fill="#E00055" d="M177.800201,18.5265161 C177.800201,22.4950645 177.569151,23.4479677 176.786964,24.3195806 C176.207649,24.9857097 175.312754,25.418129 174.218367,25.418129 C173.114964,25.418129 172.190765,24.9857097 171.613704,24.3195806 C170.829262,23.4479677 170.62977,22.4950645 170.62977,18.5265161 C170.62977,14.5602258 170.829262,13.6050645 171.613704,12.7357097 C172.190765,12.0695806 173.114964,11.6371613 174.218367,11.6371613 C175.312754,11.6371613 176.207649,12.0695806 176.786964,12.7357097 C177.569151,13.6050645 177.800201,14.5602258 177.800201,18.5265161 M181.817102,18.5265161 C181.817102,14.9632903 181.844135,12.3879677 179.76356,10.3060323 C178.319781,8.85748387 176.555914,8.04458065 174.218367,8.04458065 C171.871803,8.04458065 170.079759,8.85748387 168.63598,10.3060323 C166.554278,12.3879677 166.611759,14.9632903 166.611759,18.5265161 C166.611759,22.0886129 166.554278,24.6661935 168.63598,26.7515161 C170.079759,28.1989355 171.871803,29.0095806 174.218367,29.0095806 C176.555914,29.0095806 178.319781,28.1989355 179.76356,26.7515161 C181.844135,24.6661935 181.817102,22.0886129 181.817102,18.5265161" mask="url(#liggande-d)"/>
    <polygon fill="#E00055" points="199.379 28.837 191.231 16.18 191.231 28.837 187.207 28.837 187.207 8.215 190.793 8.215 198.946 20.844 198.946 8.215 202.966 8.215 202.966 28.837" mask="url(#liggande-d)"/>
  </g>
</svg>
