<?xml version="1.0" encoding="utf-8"?>
<!-- Generator: Adobe Illustrator 24.1.1, SVG Export Plug-In . SVG Version: 6.00 Build 0)  -->
<svg version="1.1" id="Layer_1" xmlns="http://www.w3.org/2000/svg" xmlns:xlink="http://www.w3.org/1999/xlink" x="0px" y="0px"
	 viewBox="0 0 431.99 82.99" style="enable-background:new 0 0 431.99 82.99;" xml:space="preserve">
<style type="text/css">
	.st0{fill:#FFC200;}
	.st1{fill:#FFFFFF;}
</style>
<g>
	<path class="st0" d="M195.65,41.51c8-1.5,16-2.9,24-4.3c-0.3-2.1-0.9-4-1.7-6c-1.4-3.4-3.4-6.2-5.8-8.7c-2.5-2.5-5.3-4.4-8.6-5.8
		s-6.9-2.1-10.6-2.1s-7.2,0.7-10.6,2.1c-3.3,1.4-6.2,3.3-8.6,5.8c-2.5,2.5-4.4,5.3-5.8,8.7c-1.4,3.4-2.2,6.9-2.2,10.6
		s0.8,7.2,2.2,10.5s3.4,6,5.8,8.3c2.5,2.3,5.3,4.1,8.6,5.5s6.9,2,10.6,2s7.2-0.7,10.6-2c3.3-1.3,6.2-3.1,8.6-5.5
		c2.4-2.2,4.3-4.9,5.7-8C210.55,48.81,203.15,45.11,195.65,41.51z"/>
	<path class="st0" d="M195.65,41.51c8-1.5,16-2.9,24-4.3c-0.3-2.1-0.9-4-1.7-6c-1.4-3.4-3.4-6.2-5.8-8.7c-2.5-2.5-5.3-4.4-8.6-5.8
		s-6.9-2.1-10.6-2.1s-7.2,0.7-10.6,2.1c-3.3,1.4-6.2,3.3-8.6,5.8c-2.5,2.5-4.4,5.3-5.8,8.7c-1.4,3.4-2.2,6.9-2.2,10.6
		s0.8,7.2,2.2,10.5s3.4,6,5.8,8.3c2.5,2.3,5.3,4.1,8.6,5.5s6.9,2,10.6,2s7.2-0.7,10.6-2c3.3-1.3,6.2-3.1,8.6-5.5
		c2.4-2.2,4.3-4.9,5.7-8C210.55,48.81,203.15,45.11,195.65,41.51z"/>
</g>
<path class="st1" d="M17.93,17.41h16.52c3.06,0,5.9,0.41,8.51,1.22c2.61,0.82,4.87,2.01,6.79,3.59c1.91,1.58,3.41,3.53,4.49,5.85
	c1.08,2.32,1.62,4.99,1.62,8.01c0,2.39-0.34,4.43-1.01,6.1c-0.67,1.68-1.41,3.07-2.23,4.17c-0.96,1.25-2.04,2.3-3.23,3.16l8.98,15.8
	H40.41l-7.18-12.14v12.14h-15.3V17.41z M33.22,40.96h0.79c1.82,0,3.36-0.41,4.63-1.22c1.27-0.81,1.9-2.18,1.9-4.09
	s-0.64-3.28-1.9-4.09c-1.27-0.81-2.81-1.22-4.63-1.22h-0.79V40.96z"/>
<path class="st1" d="M59.8,17.41h28.23v12.57H75.1v5.31h12.71v11.92H75.1v5.53h13.43v12.57H59.8V17.41z"/>
<path class="st1" d="M99.16,29.98h-8.83V17.41h33.47v12.57h-8.83v35.34h-15.8V29.98z"/>
<path class="st1" d="M126.3,17.41h16.52c3.06,0,5.9,0.41,8.51,1.22c2.61,0.82,4.87,2.01,6.79,3.59c1.91,1.58,3.41,3.53,4.49,5.85
	s1.62,4.99,1.62,8.01c0,2.39-0.33,4.43-1,6.1c-0.67,1.68-1.41,3.07-2.23,4.17c-0.96,1.25-2.04,2.3-3.23,3.16l8.98,15.8h-17.96
	l-7.18-12.14v12.14h-15.3V17.41z M141.6,40.96h0.79c1.82,0,3.36-0.41,4.63-1.22c1.27-0.81,1.9-2.18,1.9-4.09s-0.64-3.28-1.9-4.09
	c-1.27-0.81-2.81-1.22-4.63-1.22h-0.79V40.96z"/>
<path class="st1" d="M220.96,17.41h12.64l12.5,18.39l12.42-18.39h12.64v47.91h-15.3V48.08l-9.77,14.36l-9.84-14.36v17.24h-15.3
	V17.41z"/>
<path class="st1" d="M276.2,17.41h28.23v12.57h-12.93v5.31h12.71v11.92h-12.71v5.53h13.43v12.57H276.2V17.41z"/>
<path class="st1" d="M307.22,50.45c1.05,0.34,2.16,0.6,3.3,0.79c0.96,0.24,2.05,0.43,3.27,0.57c1.22,0.14,2.45,0.22,3.7,0.22
	c2.2,0,3.3-0.81,3.3-2.44c0-0.62-0.33-1.26-1-1.9c-0.67-0.65-1.52-1.37-2.55-2.16c-1.03-0.79-2.13-1.66-3.3-2.62
	c-1.17-0.96-2.28-2.06-3.3-3.3c-1.03-1.25-1.88-2.65-2.55-4.2c-0.67-1.55-1.01-3.34-1.01-5.35c0-2.25,0.41-4.24,1.22-5.96
	s1.94-3.16,3.38-4.31s3.12-2.02,5.06-2.62s4.01-0.9,6.21-0.9c1.15,0,2.3,0.06,3.45,0.18c1.15,0.12,2.18,0.23,3.09,0.32
	c1.05,0.14,2.08,0.29,3.09,0.43v13.43c-0.38-0.05-0.81-0.09-1.29-0.14c-0.38-0.05-0.81-0.09-1.29-0.14
	c-0.48-0.05-0.98-0.07-1.51-0.07c-0.29,0-0.65,0.01-1.08,0.04c-0.43,0.03-0.84,0.08-1.22,0.18c-0.38,0.1-0.72,0.26-1,0.5
	c-0.29,0.24-0.43,0.58-0.43,1.01c0,0.38,0.32,0.86,0.97,1.44c0.65,0.57,1.44,1.25,2.37,2.01c0.93,0.77,1.96,1.65,3.09,2.66
	c1.12,1.01,2.15,2.16,3.09,3.45c0.93,1.29,1.72,2.75,2.37,4.38s0.97,3.45,0.97,5.46c0,2.11-0.34,4.08-1.01,5.93
	c-0.67,1.84-1.71,3.45-3.12,4.81c-1.41,1.37-3.22,2.44-5.42,3.23c-2.2,0.79-4.81,1.18-7.83,1.18c-1.82,0-3.51-0.08-5.06-0.25
	c-1.56-0.17-2.93-0.37-4.13-0.61c-1.39-0.24-2.66-0.53-3.81-0.86V50.45z"/>
<path class="st1" d="M339.18,50.45c1.05,0.34,2.16,0.6,3.3,0.79c0.96,0.24,2.05,0.43,3.27,0.57c1.22,0.14,2.45,0.22,3.7,0.22
	c2.2,0,3.3-0.81,3.3-2.44c0-0.62-0.33-1.26-1-1.9c-0.67-0.65-1.52-1.37-2.55-2.16c-1.03-0.79-2.13-1.66-3.3-2.62
	c-1.17-0.96-2.28-2.06-3.3-3.3c-1.03-1.25-1.88-2.65-2.55-4.2c-0.67-1.55-1.01-3.34-1.01-5.35c0-2.25,0.41-4.24,1.22-5.96
	s1.94-3.16,3.38-4.31s3.12-2.02,5.06-2.62s4.01-0.9,6.21-0.9c1.15,0,2.3,0.06,3.45,0.18c1.15,0.12,2.18,0.23,3.09,0.32
	c1.05,0.14,2.08,0.29,3.09,0.43v13.43c-0.38-0.05-0.81-0.09-1.29-0.14c-0.38-0.05-0.81-0.09-1.29-0.14
	c-0.48-0.05-0.98-0.07-1.51-0.07c-0.29,0-0.65,0.01-1.08,0.04c-0.43,0.03-0.84,0.08-1.22,0.18c-0.38,0.1-0.72,0.26-1,0.5
	c-0.29,0.24-0.43,0.58-0.43,1.01c0,0.38,0.32,0.86,0.97,1.44c0.65,0.57,1.44,1.25,2.37,2.01c0.93,0.77,1.96,1.65,3.09,2.66
	c1.12,1.01,2.15,2.16,3.09,3.45c0.93,1.29,1.72,2.75,2.37,4.38s0.97,3.45,0.97,5.46c0,2.11-0.34,4.08-1.01,5.93
	c-0.67,1.84-1.71,3.45-3.12,4.81c-1.41,1.37-3.22,2.44-5.42,3.23c-2.2,0.79-4.81,1.18-7.83,1.18c-1.82,0-3.51-0.08-5.06-0.25
	c-1.56-0.17-2.93-0.37-4.13-0.61c-1.39-0.24-2.66-0.53-3.81-0.86V50.45z"/>
<path class="st1" d="M387.02,17.41h11.49l18.17,47.91H401.6L400.02,61h-14.51l-1.58,4.31h-15.08L387.02,17.41z M395.99,50.45
	l-3.23-8.4l-3.23,8.4H395.99z"/>
</svg>
